<svg xmlns="http://www.w3.org/2000/svg" xlink="http://www.w3.org/1999/xlink" viewBox="0 0 20 20" id="svg3535049630"><path d="M 0 0 L 20 0 L 20 20 L 0 20 Z" fill="transparent"/><path d="M 7.5 10 C 7.5 8.619 8.619 7.5 10 7.5 C 11.381 7.5 12.5 8.619 12.5 10 C 12.5 11.381 11.381 12.5 10 12.5 C 8.619 12.5 7.5 11.381 7.5 10 Z" fill="var(--token-85681366-1405-4583-ab77-baf1827404f7, rgb(233, 223, 245)) /* {&quot;name&quot;:&quot;Secondary 200&quot;} */"/><path d="M 13.438 2.188 L 6.563 2.188 C 4.146 2.188 2.188 4.146 2.188 6.563 L 2.188 13.438 C 2.188 15.854 4.146 17.813 6.563 17.813 L 13.438 17.813 C 15.854 17.813 17.813 15.854 17.813 13.438 L 17.813 6.563 C 17.813 4.146 15.854 2.188 13.438 2.188 Z M 10 13.75 C 7.929 13.75 6.25 12.071 6.25 10 C 6.25 7.929 7.929 6.25 10 6.25 C 12.071 6.25 13.75 7.929 13.75 10 C 13.75 12.071 12.071 13.75 10 13.75 Z M 14.063 6.875 C 13.545 6.875 13.125 6.455 13.125 5.938 C 13.125 5.42 13.545 5 14.063 5 C 14.58 5 15 5.42 15 5.938 C 15 6.455 14.58 6.875 14.063 6.875 Z" fill="var(--token-4a4ef8a5-66ce-4ce6-8f82-12071688e04e, rgb(207, 207, 208)) /* {&quot;name&quot;:&quot;Gray 400&quot;} */"/></svg>