<svg xmlns="http://www.w3.org/2000/svg" xlink="http://www.w3.org/1999/xlink" viewBox="0 0 35 40" id="svg3204392255"><path d="M 31.594 32.107 L 32.574 32.107 C 32.574 37.022 30.007 39.48 24.874 39.48 C 23.255 39.418 21.467 38.92 19.507 37.987 C 17.547 37.084 15.804 36.104 14.28 35.047 C 12.756 33.989 11.013 33.009 9.053 32.107 C 7.093 31.236 5.304 30.8 3.687 30.8 C 3.033 30.8 2.489 30.893 2.053 31.08 C 1.618 31.298 1.353 31.5 1.26 31.687 L 1.073 31.967 L 0 31.967 C 0.124 30.256 0.669 28.933 1.633 28 C 2.598 27.067 3.889 26.6 5.507 26.6 C 6.813 26.6 7.98 26.756 9.007 27.067 L 9.473 27.207 L 25.014 11.48 C 23.428 11.045 20.814 9.831 17.174 7.84 C 13.565 5.818 11.014 4.807 9.521 4.807 C 8.059 4.807 6.954 5.149 6.208 5.833 L 6.208 6.487 C 6.208 8.167 6.752 9.442 7.841 10.313 C 8.805 11.091 9.645 11.558 10.361 11.713 L 10.828 11.853 L 10.594 12.647 C 10.36 12.589 10.126 12.526 9.894 12.46 C 9.667 12.351 9.434 12.257 9.194 12.18 C 8.897 12.078 8.614 11.937 8.354 11.76 C 8.074 11.573 7.779 11.371 7.468 11.153 C 7.165 10.914 6.884 10.649 6.628 10.36 C 6.377 10.046 6.144 9.719 5.928 9.38 C 5.492 8.571 5.274 7.607 5.274 6.487 C 5.274 4.433 5.881 2.847 7.094 1.727 C 8.338 0.576 10.08 0 12.32 0 C 13.533 0 14.731 0.218 15.913 0.653 C 17.127 1.058 18.044 1.463 18.667 1.867 C 19.32 2.24 20.191 2.816 21.28 3.593 C 22.4 4.34 23.224 4.884 23.753 5.227 C 24.283 5.537 25.013 5.88 25.947 6.253 C 26.911 6.596 27.953 6.767 29.073 6.767 C 30.224 6.767 31.22 6.58 32.06 6.207 C 32.9 5.833 33.398 5.46 33.553 5.087 L 33.787 4.573 L 34.907 4.527 C 34.916 5.652 34.742 6.771 34.393 7.84 C 34.083 8.836 33.367 9.753 32.247 10.593 C 31.127 11.433 29.649 11.853 27.813 11.853 C 27.235 11.854 26.657 11.807 26.087 11.713 L 10.5 27.533 C 11.9 28.063 13.642 29.011 15.727 30.38 C 17.842 31.749 19.849 32.885 21.747 33.787 C 23.676 34.689 25.573 35.14 27.44 35.14 C 29.338 35.14 30.644 34.782 31.36 34.067 C 31.51 33.424 31.589 32.767 31.593 32.107 Z" fill="var(--token-3028be23-bf08-44c6-8ee9-a99aaf9f488d, rgb(255, 255, 255))"/></svg>